<svg xmlns="http://www.w3.org/2000/svg" width="1123" height="794" stroke="#000" stroke-linecap="round" stroke-linejoin="round" fill="#fff" fill-rule="evenodd">
    <defs>
        <linearGradient id="A" x1="0%" y1="0%" x2="100%" y2="100%">
            <stop offset="0%" stop-color="#66ff80"/>
            <stop offset="63%" stop-color="#061"/>
        </linearGradient>
    </defs>
    <g fill="#9fa">
        <path stroke="#b3cc66" d="M210.5 50.5h220v640h-220z"/>
        <path stroke="#9fa" d="M430.5 290.5h270v390h-270z"/>
    </g>
    <path d="M180.5 780.5h280.502695420466v-770H180.5v770zm232.601690862953-444.5672h-75.735858715127v-66.60885h75.735858715127v66.60885zM224.733268452768 236.78v-66.7984625h75.735858715126V236.78h-75.735858715126zm114.358942307884 0v-66.7984625h75.73476745178V236.78h-75.73476745178zm-1.726378612826-166.140975h75.735858715127v66.7984625h-75.735858715127V70.638925zm-112.632563695058 0h75.735858715126v66.7984625h-75.735858715126V70.638925zm0 198.685025h75.735858715126v66.799425h-75.735858715126V269.32395zm188.368422410185 366.158h-75.735858715127v-66.7984625h75.735858715127V635.48205zm-188.368422410185-99.1519375v-66.799425h75.735858715126v66.799425h-75.735858715126zm114.358942307884 0v-66.799425h75.73476745178v66.799425h-75.73476745178zm-1.726378612826-166.1419375h75.735858715127V436.9876h-75.735858715127v-66.799425zm-112.632563695058 0h75.735858715126V436.9876h-75.735858715126v-66.799425zm0 198.685025h75.735858715126v66.799425h-75.735858715126V568.8732zm470.596405180128-307.7333875V181.399575h-40.565532348022V104.8943H625.20399977778V33.3372375h-23.951047910427V104.8943h-29.560141507095v76.505275H531.12836927558v79.7402375h-33.228968875184V780.5H730.5V261.1398125h-35.170326367104zm-84.797709537443 312.491025h-75.735858715126V506.832375h75.735858715126v66.7984625zm0-203.4426625h-75.735858715126V303.38875h75.735858715126v66.799425zm88.465445642188 100.8651875h-75.73476745178v-66.60885h75.73476745178v66.60885z" stroke="none" fill="url(#A)"/>
</svg>