<svg xmlns="http://www.w3.org/2000/svg" width="1123" height="794" stroke="#000" stroke-linecap="round" stroke-linejoin="round" fill="#fff" fill-rule="evenodd">
    <defs>
        <linearGradient id="A" x1="50%" y1="100%" x2="50%" y2="0%">
            <stop offset="0%" stop-color="#e01f15"/>
            <stop offset="59%" stop-color="#530a15"/>
        </linearGradient>
    </defs>
    <g>
        <g>
            <g>
                <path d="M1090.499315193072 236.70119003077c0 124.799222072117-240.810357582276 226.199209059294-539.999657596533 226.199209059294S10.5 361.500412102887 10.5 236.70119003077v327.599196046473c0 124.801203043593 240.810357582277 226.201190030773 539.99965759654 226.201190030773s539.999657596533-101.39998698718 539.999657596533-226.201190030773z" stroke="none" fill="url(#A)"/>
            </g>
            <g>
                <path d="M1090.499315193072 236.70119003077c0 124.799222072117-240.810357582276 226.199209059294-539.999657596533 226.199209059294S10.5 361.500412102887 10.5 236.70119003077v327.599196046473c0 124.801203043593 240.810357582277 226.201190030773 539.99965759654 226.201190030773s539.999657596533-101.39998698718 539.999657596533-226.201190030773z" stroke="#fff" stroke-linejoin="miter" fill="none" stroke-width=".7875"/>
            </g>
            <g>
                <path d="M550.49965759654 462.900399090066c299.189300014257 0 539.999657596533-101.399986987182 539.999657596533-226.201190030772S849.688957610796 10.5 550.49965759654 10.5 10.5 111.89998698718 10.5 236.699209059294s240.810357582277 226.201190030772 539.99965759654 226.201190030772z" stroke="none" fill="#600"/>
            </g>
            <g>
                <path d="M550.49965759654 462.900399090066c299.189300014257 0 539.999657596533-101.399986987182 539.999657596533-226.201190030772S849.688957610796 10.5 550.49965759654 10.5 10.5 111.89998698718 10.5 236.699209059294s240.810357582277 226.201190030772 539.99965759654 226.201190030772z" stroke="#fff" stroke-linejoin="miter" fill="none" stroke-width=".7875"/>
            </g>
            <g>
                <path d="M426.53428996693 150.772590278042l43.784206823984 70.19968622628-167.838532842068 39.001366436862 36.485912370113-31.202281732373-255.406946490035-46.80045114135 65.677236885856-54.59953584583 248.110505335918 46.800451141345 29.187617916232-23.399235084934zm240.814064181795 171.599673213462l-36.485912370108-70.19968622628 153.24379723407-38.999385465385-21.891176762114 31.19831978942 248.110505335917 46.800451141345-58.38079573174 46.802432112827-255.406946490033-46.802432112827-29.189471215992 31.2003007609zm-87.56841364797-210.601039650323l167.838532842063-46.800451141346 7.298294453877 70.201667197757-43.784206823987-7.80106567596-80.270119194092 78.000751902247-80.27197249385-15.60015038045 80.27197249385-70.201667197762-51.08250127786-7.799084704484zM506.80626246078 392.573930689266L346.264170772833 423.77423145016l-7.298294453875-85.79983660673 51.082501277862 15.60015038045 87.56841364797-85.8018175782 80.270119194092 15.600150380448-94.864854802086 93.600902282697 43.784206823983 15.60015038045z" stroke="none" fill="#f99"/>
            </g>
        </g>
    </g>
</svg>