<svg xmlns="http://www.w3.org/2000/svg" width="551" height="771" stroke="#000" stroke-linecap="round" stroke-linejoin="round" fill="#fff" fill-rule="evenodd">
    <defs>
        <linearGradient id="A" x1="0%" y1="0%" x2="100%" y2="100%">
            <stop offset="0%" stop-color="#e01f15"/>
            <stop offset="59%" stop-color="#530a15"/>
        </linearGradient>
    </defs>
    <g fill="#f99">
        <path d="M30.5 40.5h220v640h-220z"/>
        <path stroke="#f99" d="M250.5 280.5h270v390h-270z"/>
    </g>
    <path d="M.5 770.5h280.502695420466V.5H.5v770zm232.601690862953-444.5672h-75.735858715127v-66.60885h75.735858715127v66.60885zM44.733268452768 226.78v-66.7984625h75.735858715126V226.78H44.733268452768zm114.358942307884 0v-66.7984625h75.73476745178V226.78h-75.73476745178zm-1.726378612826-166.140975h75.735858715127v66.7984625h-75.735858715127V60.638925zm-112.632563695058 0h75.735858715126v66.7984625H44.733268452768V60.638925zm0 198.685025h75.735858715126v66.799425H44.733268452768V259.32395zm188.368422410185 366.158h-75.735858715127v-66.7984625h75.735858715127V625.48205zM44.733268452768 526.3301125v-66.799425h75.735858715126v66.799425H44.733268452768zm114.358942307884 0v-66.799425h75.73476745178v66.799425h-75.73476745178zm-1.726378612826-166.1419375h75.735858715127V426.9876h-75.735858715127v-66.799425zm-112.632563695058 0h75.735858715126V426.9876H44.733268452768v-66.799425zm0 198.685025h75.735858715126v66.799425H44.733268452768V558.8732zm470.596405180128-307.7333875V171.399575h-40.565532348022V94.8943H445.20399977778V23.3372375h-23.951047910427V94.8943h-29.560141507095v76.505275H351.12836927558v79.7402375h-33.228968875184V770.5H550.5V251.1398125h-35.170326367104zm-84.797709537443 312.491025h-75.735858715126V496.832375h75.735858715126v66.7984625zm0-203.4426625h-75.735858715126V293.38875h75.735858715126v66.799425zm88.465445642188 100.8651875h-75.73476745178v-66.60885h75.73476745178v66.60885z" stroke="none" fill="url(#A)"/>
</svg>