<svg xmlns="http://www.w3.org/2000/svg" width="1082" height="782" stroke="#000" stroke-linecap="round" stroke-linejoin="round" fill="#fff" fill-rule="evenodd">
    <defs>
        <linearGradient id="A" x1="0%" y1="0%" x2="100%" y2="100%">
            <stop offset="0%" stop-color="#99e6ff"/>
            <stop offset="53%" stop-color="#036"/>
        </linearGradient>
        <linearGradient id="B" x1="0%" y1="0%" x2="100%" y2="100%">
            <stop offset="0%" stop-color="#99e6ff"/>
            <stop offset="100%" stop-color="#036"/>
        </linearGradient>
    </defs>
    <g>
        <g>
            <g>
                <path d="M1080.499315193072 226.70119003077c0 124.799222072117-240.810357582276 226.199209059294-539.999657596533 226.199209059294S.5 351.500412102887.5 226.70119003077v327.599196046473c0 124.801203043593 240.810357582277 226.201190030773 539.99965759654 226.201190030773s539.999657596533-101.39998698718 539.999657596533-226.201190030773z" stroke="none" fill="url(#A)"/>
            </g>
            <g>
                <path d="M1080.499315193072 226.70119003077c0 124.799222072117-240.810357582276 226.199209059294-539.999657596533 226.199209059294S.5 351.500412102887.5 226.70119003077v327.599196046473c0 124.801203043593 240.810357582277 226.201190030773 539.99965759654 226.201190030773s539.999657596533-101.39998698718 539.999657596533-226.201190030773z" stroke="#fff" stroke-linejoin="miter" fill="none" stroke-width=".7875"/>
            </g>
            <g>
                <path d="M540.49965759654 452.900399090066c299.189300014257 0 539.999657596533-101.399986987182 539.999657596533-226.201190030772S839.688957610796.5 540.49965759654.5.5 101.89998698718.5 226.699209059294s240.810357582277 226.201190030772 539.99965759654 226.201190030772z" stroke="none" fill="url(#B)"/>
            </g>
            <g>
                <path d="M540.49965759654 452.900399090066c299.189300014257 0 539.999657596533-101.399986987182 539.999657596533-226.201190030772S839.688957610796.5 540.49965759654.5.5 101.89998698718.5 226.699209059294s240.810357582277 226.201190030772 539.99965759654 226.201190030772z" stroke="#fff" stroke-linejoin="miter" fill="none" stroke-width=".7875"/>
            </g>
            <g>
                <path d="M416.53428996693 140.772590278042l43.784206823984 70.19968622628-167.838532842068 39.001366436862 36.485912370113-31.202281732373-255.406946490035-46.80045114135 65.677236885856-54.59953584583 248.110505335918 46.800451141345 29.187617916232-23.399235084934zm240.814064181795 171.599673213462l-36.485912370108-70.19968622628 153.24379723407-38.999385465385-21.891176762114 31.19831978942 248.110505335917 46.800451141345-58.38079573174 46.802432112827-255.406946490033-46.802432112827-29.189471215992 31.2003007609zm-87.56841364797-210.601039650323l167.838532842063-46.800451141346 7.298294453877 70.201667197757-43.784206823987-7.80106567596-80.270119194092 78.000751902247-80.27197249385-15.60015038045 80.27197249385-70.201667197762-51.08250127786-7.799084704484zM496.80626246078 382.573930689266L336.264170772833 413.77423145016l-7.298294453875-85.79983660673 51.082501277862 15.60015038045 87.56841364797-85.8018175782 80.270119194092 15.600150380448-94.864854802086 93.600902282697 43.784206823983 15.60015038045z" stroke="none" fill="#cce5ff"/>
            </g>
        </g>
    </g>
</svg>